<svg id="Layer_1" data-name="Layer 1" xmlns="http://www.w3.org/2000/svg" viewBox="0 0 248.54 87.23"><defs><style>.cls-1{fill:#154d8e;}.cls-2{fill:#a4214b;}</style></defs><path class="cls-1" d="M232.92,84.24c0-.07,0-.17-.08-.21-1.8-1.21-1.82-2.54-.05-3.76-.36-1.1-.35-1.14.47-1.9a2.63,2.63,0,0,1-1.11-2.74,2.19,2.19,0,0,1,2-1.81,31.22,31.22,0,0,1,3.36,0v1l-.85.11a8.75,8.75,0,0,1,.19,2c-.15,1.14-1,1.58-2.08,1.8a4.73,4.73,0,0,0-.9.45,5.15,5.15,0,0,0,.93.7,9.37,9.37,0,0,0,1.21.34,1.94,1.94,0,0,1,1.53,1.58,2,2,0,0,1-1,2.11,2.13,2.13,0,0,0-.33.34Zm1.52-3.11c-1,0-1.69.39-1.62,1,.11.91.88,1,1.57,1,1,.07,1.79-.35,1.84-.91S235.48,81.15,234.44,81.13Zm1.26-4.87A1.17,1.17,0,0,0,234.55,75a1.21,1.21,0,0,0,0,2.41A1.16,1.16,0,0,0,235.7,76.26Z"/><path class="cls-1" d="M190.08,84.24c.55-1.35,1.07-2.71,1.67-4a2,2,0,0,0,0-1.85c-.71-1.44-1.32-2.93-2-4.4,1.12-.43,1.38-.33,1.81.65s.79,1.79,1.29,2.93a29,29,0,0,0,1.2-2.84c.3-1,.94-1,1.88-.85l-4.42,10.4Z"/><path class="cls-1" d="M80.7,59c1.78-1.66,3.41-3.14,5-4.66.43-.41.78-.92,1.18-1.37,3-3.31,5.85-6.73,7.43-11a20.49,20.49,0,0,0,.57-13.75c-1.74-5.37-7.72-9.5-13.49-9.52-1,0-2,.06-3.05.16-.21,0-.41.36-.55.59s0,.35,0,.53V58.83H65.08V7.8c1.68-.14,3.4-.4,5.12-.41a121.58,121.58,0,0,1,12.38.19,30.68,30.68,0,0,1,16.1,5.9A23.76,23.76,0,0,1,108,28.56a35.84,35.84,0,0,1,.77,6.41,35.11,35.11,0,0,1-1,7.64c-.8,3.24-2,6.38-3.06,9.56-.07.22-.15.43-.23.65A1,1,0,0,0,106,52.2Q114.17,33.6,122.34,15c1-2.19,2-4.37,2.89-6.58a.93.93,0,0,1,1-.66h13.13a.86.86,0,0,1,.95.61q2.4,6.19,4.85,12.37c1.59,4,3.21,8,4.82,12,0,.08.08.15.31.17,0-.54.13-1.07.15-1.61.21-5.57,2.42-10.35,5.68-14.78s7.86-6.83,13-8.37a37,37,0,0,1,15-1.27,26.18,26.18,0,0,1,11.52,4,1.42,1.42,0,0,1,.76,1.37c0,3.48,0,7,0,10.44v1c-1.43-.47-2.71-.93-4-1.33a45.41,45.41,0,0,0-13.41-2.33,25.12,25.12,0,0,0-4.62.61c-4.44.85-8.4,7.11-8.55,10.5a17.29,17.29,0,0,0,1.33,7.54c1.4,3.33,4.17,4.75,7.56,5.34a51.65,51.65,0,0,0,14.69.14c2.29-.25,4.57-.65,6.85-1,.44-.07.87-.18,1.41-.3-.23-.74-.46-1.41-.63-2.09a30.65,30.65,0,0,1-.59-11.33A26,26,0,0,1,205.22,13c3-2.72,6.79-4.09,10.68-5.12A36.9,36.9,0,0,1,230.43,7a24.8,24.8,0,0,1,10.94,4,1.33,1.33,0,0,1,.58.89c0,3.81,0,7.62,0,11.43a1.55,1.55,0,0,1-.1.33c-1.33-.44-2.65-.9-4-1.31a44.16,44.16,0,0,0-13.32-2.3c-2.94,0-5.93.35-8.18,2.45-4.95,4.65-5.82,8.51-4.34,14.14.72,2.74,2,5.22,4.76,6.28a26.12,26.12,0,0,0,6.44,1.49,57.12,57.12,0,0,0,14.42-.56c1.78-.25,3.54-.6,5.32-.89a1.85,1.85,0,0,1,.5,0v1.54c0,3.84,0,7.68,0,11.52,0,.62-.1.94-.82,1.09a88.57,88.57,0,0,1-17.18,2.17c-4.95,0-9.73-.43-14.3-2.47a25.51,25.51,0,0,1-12.92-12.46c-.12-.23-.25-.45-.48-.86-.05.41-.1.6-.1.8,0,4,0,7.92,0,11.88,0,.6-.18.81-.77.93a88,88,0,0,1-17.27,2.18c-4.95,0-9.78-.35-14.27-2.54-2.11-1-4-2.43-6.05-3.66l-.89-.52L161.78,59a7.92,7.92,0,0,1-.85.08c-4.74,0-9.48,0-14.21,0a1.07,1.07,0,0,1-1.14-.74Q139.42,45.5,133.21,32.7L132,30.06a2,2,0,0,0-.35.39Q125.85,44.22,120.15,58a1.4,1.4,0,0,1-1.51,1c-12.42,0-24.84,0-37.26,0Z"/><path class="cls-2" d="M27,55.8l.53,2.78c-.4,0-.71.06-1,.06-3.78,0-7.56,0-11.33,0-.71,0-1,.18-.92.91a14.17,14.17,0,0,1,0,2.16c0,.22-.34.59-.53.59-2.36,0-4.73,0-7.16,0V9H53.88v.94q0,22.55,0,45.08c0,.85-.42.81-1,.81H27Zm1.6-38.59c1.67,0,2.28.4,2.28,2.32v13a5.53,5.53,0,0,1,0,.71,1.66,1.66,0,0,1-1.62,1.59c-.23,0-.46,0-.73,0v.84H35.3l0-.82c-1.9-.06-2.33-.51-2.34-2.4V19.77a5.07,5.07,0,0,1,.54.84C34,22.05,34.53,23.5,35.05,25c1.21,3.4,2.44,6.79,3.61,10.2.22.66.62.66,1.09.61s1.21.33,1.5-.55c.58-1.75,1.22-3.48,1.83-5.22l3.63-10.3c0-.05.14-.07.24-.1a1.08,1.08,0,0,1,.08.26c0,4.29,0,8.57,0,12.86,0,1.79-.42,1.74-1.95,2.18-.2.06-.35.28-.52.43.16.15.31.42.47.42,2.37,0,4.74,0,7.11,0,.16,0,.31-.32.47-.49-.15-.13-.3-.36-.47-.38-1.64-.25-2-.53-2-2q-.07-6.8,0-13.58c0-1.48.48-1.86,1.87-2,.23,0,.43-.31.64-.48-.22-.16-.44-.45-.67-.45-1.71,0-3.42,0-5.13-.05a.86.86,0,0,0-1,.7Q43.52,23.49,41.18,30c-.2.56-.43,1.11-.75,1.9-.63-1.79-1.18-3.33-1.73-4.87-1.22-3.44-2.43-6.88-3.67-10.32a.89.89,0,0,0-.63-.47c-1.91,0-3.82,0-5.8,0Zm-16,2.6a4.12,4.12,0,0,1,.37.42c2.68,4.6,5.4,9.18,8,13.83.73,1.31,1.48,2,3,1.79.65-.09.92-.14.92-.9,0-5.19,0-10.37,0-15.56,0-1.53.37-1.94,1.88-2.16.23,0,.43-.28.64-.43-.21-.15-.42-.43-.63-.43-1.95,0-3.9,0-5.85,0-.18,0-.37.26-.55.39.16.16.3.43.49.46,1.68.34,2.05.77,2.05,2.47,0,3.84,0,7.67,0,11.51,0,.1-.07.19-.15.37l-.23-.38Q18.38,24.1,14.23,17a1.41,1.41,0,0,0-.94-.64c-1.56-.06-3.12,0-4.68,0-.19,0-.37.25-.56.38.15.17.29.45.48.49,1.82.39,2,.56,2,2.43v13c0,1.72-.2,2-1.91,2.32-.2,0-.36.29-.54.44.2.15.41.42.62.43q2.88,0,5.76,0c.18,0,.36-.25.54-.39-.16-.16-.3-.44-.49-.47-1.5-.21-1.88-.27-1.9-2.51C12.51,28.26,12.55,24.1,12.55,19.81Zm36,22.25v-2c0-1.41,0-1.4,1.43-1.42.87,0,1.75-.11,1.83,1.14,0,.09.21.23.32.22a.41.41,0,0,0,.25-.3,7.23,7.23,0,0,1,.06-1c.17-.67-.09-.86-.72-.86-1.92,0-3.84,0-5.76,0a2.52,2.52,0,0,0-.46.1c0,.13,0,.21,0,.25s.14.14.21.14c.92,0,1.06.6,1,1.34v7.71h5.63V45.18l-.26,0c-.06.2-.06.46-.19.6-.3.31-.63.73-1,.81a5.4,5.4,0,0,1-1.88,0,.76.76,0,0,1-.52-.51c-.05-.93,0-1.86,0-2.79a.65.65,0,0,1,.49-.43c.89,0,2-.34,2.21,1.11,0,0,.15.07.47.2,0-1.08,0-2.07,0-3a1.47,1.47,0,0,0-.5-.09C50.8,42.55,49.61,41.94,48.58,42.06ZM34.29,47.29c-.17-.48-.31-.9-.46-1.31Q32.42,42.16,31,38.33c-.06-.17-.19-.47-.3-.47-.87,0-1.74,0-2.72,0,.14.25.17.38.22.39,1.11.12,1,.78.68,1.53-.44,1.17-.86,2.35-1.29,3.53l-1.45,4c.68.24,1,.12,1.21-.55a11,11,0,0,1,.7-1.83.9.9,0,0,1,.58-.42,5.46,5.46,0,0,1,1.07,0c2,0,2,0,2.65,1.89C32.76,47.56,32.86,47.62,34.29,47.29ZM13.76,39c.18-.79.13-1.32-.85-1.24-.37,0-.76-.17-1.15-.16-1.94,0-3,.37-3.49,1.88-.39,1.14.2,2.24,1.74,3.18.59.35,1.22.64,1.79,1a1.71,1.71,0,0,1,.9,2.12,1.81,1.81,0,0,1-2.15.88c-.71-.18-1.4-.45-2.14-.7-.16.68-.2,1.32.7,1.38a17.12,17.12,0,0,0,3.12,0,2.55,2.55,0,0,0,2.21-3.09,3.13,3.13,0,0,0-1.69-2.18,24.05,24.05,0,0,1-2.29-1.39A1.14,1.14,0,0,1,10,39.19a1.4,1.4,0,0,1,1.68-.7C12.37,38.63,13,38.84,13.76,39Zm25.13-.27c0,2.67,0,5.3,0,7.94,0,.54.15.72.7.75.78,0,1.11-.13,1.09-1-.07-2.57,0-5.14,0-7.82a4.86,4.86,0,0,1,1.73.17c.39.21.57.81.94,1.39.44-.83.12-1.57.13-2.31h-7.3V40l.21.21A1.76,1.76,0,0,1,38.89,38.77Zm-17.43-.06c1.75-.14,1.75-.13,2.35,1.08.05.11.26.25.32.22s.3-.23.3-.34c0-.62-.11-1.22-.17-1.79H16.93L17,40c.93-1.23,1.49-1.5,2.79-1.17v8.6h1.64Z"/><path class="cls-2" d="M143.58,59H122.35q4.88-12,9.68-23.8C135.85,43,139.67,50.93,143.58,59Z"/><path class="cls-2" d="M22.34,72.41v8.18h-2V69.71h3.17l2.65,8.37L29,69.68h3.15v10.9H30.09V72.49l-.16,0c-.42,1.25-.85,2.51-1.27,3.77s-.88,2.54-1.27,3.83a.7.7,0,0,1-.82.59c-1.53,0-1.53,0-2-1.42q-1.06-3.42-2.14-6.83Z"/><path class="cls-2" d="M14.43,77.51V69.7h2V80.64c-.89,0-1.78,0-2.66,0-.24,0-.51-.35-.66-.6-1.32-2.22-2.61-4.44-3.9-6.67-.15-.25-.31-.49-.56-.89v8.13h-2V69.66c.86,0,1.75,0,2.63,0,.24,0,.51.35.66.61,1.44,2.41,2.86,4.83,4.28,7.25Z"/><path class="cls-2" d="M45.43,69.7H47.8c0,1.78,0,3.54,0,5.3a17.89,17.89,0,0,0,.06,2.07c.13,1.23.83,1.77,2.16,1.77A1.87,1.87,0,0,0,52.17,77c.08-.92,0-1.85,0-2.78V69.71h2.32a5.44,5.44,0,0,1,0,.58c0,2.19,0,4.38,0,6.57a3.64,3.64,0,0,1-3.18,3.76,7.5,7.5,0,0,1-2.41.09,3.6,3.6,0,0,1-3.52-3.81C45.36,74.54,45.43,72.17,45.43,69.7Z"/><path class="cls-2" d="M35.28,78.05a19.07,19.07,0,0,0,2.19.65,5.07,5.07,0,0,0,1.86,0,1.24,1.24,0,0,0,.81-.81,1.29,1.29,0,0,0-.41-1.07,13.67,13.67,0,0,0-1.95-1.08c-1.28-.66-2.35-1.47-2.36-3.1a2.88,2.88,0,0,1,2.3-3,6.94,6.94,0,0,1,4.76.62L41.75,72c-.5-.14-1-.32-1.45-.42a3.62,3.62,0,0,0-1.41-.12c-.41.1-1,.43-1,.75a1.51,1.51,0,0,0,.52,1.25,22.71,22.71,0,0,0,2.28,1.24c1.58.89,2.12,2,1.84,3.53a3,3,0,0,1-2.89,2.41,17.53,17.53,0,0,1-3.38-.2.91.91,0,0,1-.94-1.19A8.31,8.31,0,0,0,35.28,78.05Z"/><path class="cls-1" d="M65.19,75.38c0-1.5,0-3,0-4.49,0-.59.17-.8.77-.77,1.28.06,2.57,0,3.85.12,3.31.27,4.94,3.68,4.22,6.58a5,5,0,0,1-4.92,4c-1.07,0-2.15,0-3.23,0-.59,0-.7-.25-.69-.76C65.2,78.49,65.19,76.94,65.19,75.38Zm1.52.06c0,1.07,0,2.15,0,3.23,0,.55.17.76.72.71s1.38,0,2.06-.13a3.58,3.58,0,0,0,3.16-3.82,3.54,3.54,0,0,0-3.09-3.79,12.1,12.1,0,0,0-2.33,0c-.19,0-.48.39-.49.61C66.68,73.28,66.7,74.36,66.71,75.44Z"/><path class="cls-1" d="M147.47,80.74h-1.31V73.68l1.77.43c1.5-.82,2-.77,3.26.55a11.17,11.17,0,0,1,1.12-.83,2,2,0,0,1,3,1.65c.14,1.72,0,3.46,0,5.18-1.14.28-1.18.24-1.2-.86,0-1.26,0-2.51-.11-3.77a1.09,1.09,0,0,0-1.29-1.16,1.47,1.47,0,0,0-1.28,1.47c0,1.44,0,2.87,0,4.38h-1.36c0-1.48,0-2.94,0-4.4,0-1.12-.4-1.5-1.16-1.47-.93,0-1.44.64-1.44,1.68Z"/><path class="cls-1" d="M109.65,80.71c-1.07.35-1.54-.11-1.87-1.07-.69-2-.74-2-2.8-2s-2.08,0-2.84,2c-.45,1.22-.45,1.22-1.86,1,.35-.92.68-1.83,1-2.74.94-2.43,1.87-4.86,2.85-7.27a1.06,1.06,0,0,1,.75-.55.89.89,0,0,1,.68.48c1.37,3.29,2.71,6.59,4.05,9.89A.85.85,0,0,1,109.65,80.71Zm-6.11-4.54h2.85l-1.51-3.57Z"/><path class="cls-1" d="M165.08,80.75c0-1.55,0-3,0-4.41,0-1-.52-1.51-1.21-1.48a1.52,1.52,0,0,0-1.39,1.65v4.18c-1.33.22-1.35.2-1.35-1s0-2.28,0-3.42-.42-1.49-1.19-1.45a1.42,1.42,0,0,0-1.43,1.59v4.19c-1.24.34-1.34.27-1.34-.84V73.64l1.78.49c1.43-.87,1.76-.84,3.33.53a4.13,4.13,0,0,0,.39-.34,2.1,2.1,0,0,1,2.38-.59,2.07,2.07,0,0,1,1.33,2c0,1.67,0,3.34,0,5Z"/><path class="cls-1" d="M136.63,78.32c.23,1.65.1,1.86-1.39,2.28-3.28.93-6.07-.35-7-3.23a5.74,5.74,0,0,1,1.67-6.21,5.67,5.67,0,0,1,6.25-.44c.38.19.42,1.06.5,1.69-2.47-1.07-4.78-1.7-6.58.91a4.12,4.12,0,0,0,.36,4.85C131.86,79.76,133.55,79.81,136.63,78.32Z"/><path class="cls-1" d="M209.37,72.47c-3.32-1.3-4.93-1.18-6.19.43a4.27,4.27,0,0,0-.16,5c1.28,1.75,2.8,1.88,6.38.53.34,1.46.16,1.78-1.23,2.18-3.37,1-6.13-.25-7.07-3.25a5.46,5.46,0,0,1,1.1-5.63,5.24,5.24,0,0,1,5.68-1.42l.17.06C209.56,70.81,209.56,70.81,209.37,72.47Z"/><path class="cls-1" d="M210.79,77.28a3.3,3.3,0,0,1,3.34-3.53,3.39,3.39,0,0,1,3.46,3.64,3.31,3.31,0,0,1-3.43,3.45A3.23,3.23,0,0,1,210.79,77.28Zm1.37,0a2,2,0,0,0,2,2.24,2,2,0,0,0,2.07-2.19A2.17,2.17,0,0,0,214.13,75,2,2,0,0,0,212.16,77.24Z"/><path class="cls-1" d="M78.81,80.84c-2.07,0-3.35-1.37-3.35-3.57a3.29,3.29,0,0,1,3.35-3.52,3.41,3.41,0,0,1,3.45,3.65A3.34,3.34,0,0,1,78.81,80.84Zm-2-3.55a2,2,0,0,0,2,2.19,2.07,2.07,0,0,0,2-2.25,2.19,2.19,0,0,0-2.14-2.18A2.07,2.07,0,0,0,76.81,77.29Z"/><path class="cls-1" d="M141.28,80.84a3.3,3.3,0,0,1-3.37-3.5,3.41,3.41,0,1,1,6.81,0A3.3,3.3,0,0,1,141.28,80.84Zm.05-1.36a2,2,0,0,0,2-2.14,2.2,2.2,0,0,0-2.14-2.3,2.15,2.15,0,0,0-2,2.24A2,2,0,0,0,141.33,79.48Z"/><path class="cls-1" d="M231,77.4h-4.35a1.64,1.64,0,0,0,.86,1.79c1.13.64,2.19.19,3.19-.42.39,1.06.27,1.44-.7,1.79a3.33,3.33,0,0,1-3.49-.31,4,4,0,0,1-1.22-4.09,2.87,2.87,0,0,1,3.17-2.54c1.38.08,2.32,1.19,2.47,2.93C231,76.78,231,77,231,77.4Zm-1.39-.91c-.19-1.17-.69-1.68-1.51-1.63a1.47,1.47,0,0,0-1.37,1.63Z"/><path class="cls-1" d="M239.71,77.39c.13,2.11,1.86,2.66,4,1.43.42,1.06.28,1.48-.75,1.8-1.93.58-3.39.17-4.19-1.36-.9-1.72-.51-4.22.87-5.17a2.65,2.65,0,0,1,2.82-.23,2.44,2.44,0,0,1,1.44,2.41c0,.35,0,.7,0,1.12Zm2.95-.9c-.13-1.17-.63-1.69-1.48-1.63a1.44,1.44,0,0,0-1.35,1.63Z"/><path class="cls-1" d="M89.1,80.75H87.74V77.33a11.43,11.43,0,0,0,0-1.17c-.07-1-.43-1.33-1.23-1.32a1.33,1.33,0,0,0-1.38,1.42c0,1.41,0,2.82,0,4.23,0,.06,0,.11-.09.23H83.66v-7L85.5,74c1.47-1.14,3.56-.36,3.6,2.2C89.12,77.73,89.1,79.22,89.1,80.75Z"/><path class="cls-1" d="M179.36,80.73c0-.9,0-1.76,0-2.63,0-.66,0-1.32,0-2-.09-.93-.52-1.33-1.29-1.29a1.49,1.49,0,0,0-1.41,1.46c0,1.46,0,2.92,0,4.37-1.29.26-1.35.22-1.35-.91,0-2,0-3.9,0-6.08l1.6.37,0,.21a5.87,5.87,0,0,1,.75-.47,2,2,0,0,1,3,1.6c.16,1.75,0,3.52,0,5.34Z"/><path class="cls-1" d="M173.45,80.92l-1.52-.45.06-.22a6.3,6.3,0,0,1-1.21.56,2.09,2.09,0,0,1-2.64-2.06c-.07-1.61,0-3.23,0-4.92h1.31v3.26c0,.39,0,.78,0,1.17.08,1,.5,1.44,1.28,1.39a1.48,1.48,0,0,0,1.42-1.52c0-1.41,0-2.82,0-4.3h1.3Z"/><path class="cls-1" d="M120.57,80.36c-.23.11-.46.24-.71.34a1.69,1.69,0,0,1-2.21-.6,1.75,1.75,0,0,1,.38-2.34,10.29,10.29,0,0,1,1.9-1c.46-.2.9-.37.69-1s-.63-1-1.22-.79a13.39,13.39,0,0,0-1.86.92c-.4-1.39.2-2,1.53-2.25,1.58-.28,2.75.46,2.86,1.81.08,1.07,0,2.15.07,3.23,0,.31,0,.63.06,1l.83-.16.21.21a3.81,3.81,0,0,1-.74.89C121.76,81,121.32,80.92,120.57,80.36Zm.08-3.06a5.73,5.73,0,0,0-1.51.87,1.48,1.48,0,0,0-.23,1.2,1,1,0,0,0,1,.36,1.52,1.52,0,0,0,.76-.9A6.25,6.25,0,0,0,120.65,77.3Z"/><path class="cls-1" d="M112,80.76h-1.23V73.69l1.7.39a2.08,2.08,0,0,1,2.38-.26,2.4,2.4,0,0,1,1.22,2.42v4.51h-1.27c0-1.06,0-2.07,0-3.08,0-.57-.06-1.13-.12-1.7a1.1,1.1,0,0,0-1.31-1.13,1.42,1.42,0,0,0-1.31,1.35c0,1.34,0,2.69,0,4A4.74,4.74,0,0,1,112,80.76Z"/><path class="cls-1" d="M90.62,76c-.41-1.89.46-2.25,1.59-2.39,1.64-.2,2.72.6,2.78,2.05.05,1,0,2,0,3.06,0,.29,0,.58,0,1l1-.16c-.23.45-.32.92-.57,1a2,2,0,0,1-1.41.12,1,1,0,0,0-1-.07,1.78,1.78,0,0,1-2.46-.54,1.91,1.91,0,0,1,.75-2.57,9.48,9.48,0,0,1,1.56-.69c.46-.18.9-.32.72-1a1,1,0,0,0-1.2-.83,4.11,4.11,0,0,0-1.22.53A3.53,3.53,0,0,0,90.62,76Zm3.07,1.49-.26-.18A11.28,11.28,0,0,0,92,78.43a.94.94,0,0,0,0,.93,1.16,1.16,0,0,0,1,.38,1.18,1.18,0,0,0,.74-.75A5.61,5.61,0,0,0,93.69,77.51Z"/><path class="cls-1" d="M187.27,72.21l.06,1.5,1.9.08v1.13c-.1.06-.15.11-.2.11-1.73.06-1.73.06-1.73,1.85v1.35c0,1.2.51,1.55,1.66,1.16.19-.06.37-.14.61-.23.1.7.28,1.3-.57,1.58a2.17,2.17,0,0,1-2.75-.86,3.58,3.58,0,0,1-.3-1.29c0-.84,0-1.68,0-2.52,0-.63.15-1.36-1.16-.89l.12-.32Z"/><path class="cls-1" d="M219,70.16h1.3V80.71c-1.3.19-1.3.19-1.3-1V70.16Z"/><path class="cls-1" d="M222.32,75.34c0-1.49,0-3,0-4.48,0-.51.09-.77.69-.75s.69.24.69.76q0,4.62,0,9.23c0,.58-.22.7-.74.71s-.64-.25-.63-.71C222.33,78.51,222.32,76.93,222.32,75.34Z"/><path class="cls-1" d="M182.59,73.81c.22,0,.39-.06.56-.06s.41,0,.66.06v6.93h-1.22Z"/><path class="cls-1" d="M84.36,72.09c0-1.69.65-2.2,2-1.68.59.23,1.16.64,1.59-.2.18.11.49.2.51.33a1.27,1.27,0,0,1-1.69,1.4,4.93,4.93,0,0,1-.67-.27c-.44-.21-.82-.35-1.14.21C84.9,72,84.6,72,84.36,72.09Z"/><path class="cls-1" d="M183.23,70.52c.35.57.73.91.68,1.19s-.48.54-.75.81c-.23-.27-.64-.54-.65-.82S182.86,71.09,183.23,70.52Z"/><path class="cls-2" d="M28.49,43.67l1.36-3.76,1.51,3.76Z"/></svg>