<?xml version="1.0" encoding="UTF-8"?> <svg xmlns="http://www.w3.org/2000/svg" xmlns:xlink="http://www.w3.org/1999/xlink" id="Group_1886" data-name="Group 1886" width="796.762" height="173.275" viewBox="0 0 796.762 173.275"><path id="Path_2278" data-name="Path 2278" d="M288.109,0V58.7L239.851,0h-16.17V89h16.934V28.775L289.764,89h15.405V0Z" transform="translate(56.484 11.921)" fill="#003a92"></path><path id="Path_2279" data-name="Path 2279" d="M370.915,80.124V90.991a25.609,25.609,0,0,1-12.985,3.528c-6.351,0-10.02-3.387-11.29-7.2-4.375,4.941-11.29,7.2-16.936,7.2-11.008,0-21.028-6.492-21.028-18.347,0-11.715,8.609-18.913,21.735-22.582a112.646,112.646,0,0,1,14.254-3.1V48.51c0-7.057-3.387-10.726-10.021-10.726-7.479,0-14.677,2.823-21.734,8.186V31.009c5.786-4.94,14.678-7.621,24.275-7.621,7.763,0,14.82,2.258,19.053,6.492,4.093,4.092,6.492,9.6,6.492,16.654V78.289c0,2.117.565,3.246,2.259,3.528,1.693.423,4.093-.564,5.928-1.694m-35.425,1.552a11.36,11.36,0,0,0,9.033-4.516V61.212c-12.138,1.694-18.63,5.5-18.63,12.843,0,4.657,3.669,7.621,9.6,7.621" transform="translate(73.169 5.544)" fill="#003a92"></path><path id="Path_2280" data-name="Path 2280" d="M372.087,75.39V41.942h-10.02V37.284l27.8-26.674V27.969h20.746V41.942H389.87V73.7c0,6.069,2.964,9.456,7.621,10.02h2.259c4.657,0,8.891-1.694,13.125-4.374v13.83a36.848,36.848,0,0,1-17.642,4.8c-13.69,0-23.146-6.633-23.146-22.581" transform="translate(85.826 2.515)" fill="#003a92"></path><path id="Path_2281" data-name="Path 2281" d="M414.318,10.846a10.162,10.162,0,1,1,20.323,0,10.163,10.163,0,0,1-20.323,0m19.2,87.643H415.447V30.322h18.066Z" transform="translate(98.211 0.162)" fill="#003a92"></path><path id="Path_2282" data-name="Path 2282" d="M440.443,59.008c0-20.464,16.089-35.848,37.26-35.848,21.735,0,37.4,15.1,37.4,35.848,0,17.783-12.844,35.848-37.542,35.848-21.171,0-37.119-15.384-37.119-35.848m19.053,0c0,12.561,7.621,21.171,18.207,21.171,10.726,0,18.489-8.61,18.489-21.171S488.429,37.838,477.7,37.838c-10.585,0-18.207,8.61-18.207,21.171" transform="translate(104.404 5.49)" fill="#003a92"></path><path id="Path_2283" data-name="Path 2283" d="M528,24.94v8.045c5.222-6.915,12.138-9.6,20.887-9.6,12.42,0,23.994,6.915,23.994,26.533V93.108H554.814V49.921c0-4.94-1.693-12.42-11.008-12.42a16.926,16.926,0,0,0-14.678,9.456v46.15H511.062V24.94Z" transform="translate(121.144 5.544)" fill="#003a92"></path><path id="Path_2284" data-name="Path 2284" d="M634.109,80.124V90.991a25.609,25.609,0,0,1-12.985,3.528c-6.351,0-10.02-3.387-11.29-7.2-4.375,4.941-11.29,7.2-16.936,7.2-11.008,0-21.028-6.492-21.028-18.347,0-11.715,8.609-18.913,21.735-22.582a112.648,112.648,0,0,1,14.254-3.1V48.51c0-7.057-3.387-10.726-10.021-10.726-7.479,0-14.678,2.823-21.734,8.186V31.009c5.786-4.94,14.677-7.621,24.274-7.621,7.762,0,14.82,2.258,19.053,6.492,4.093,4.092,6.492,9.6,6.492,16.654V78.289c0,2.117.565,3.246,2.259,3.528,1.693.423,4.094-.564,5.928-1.694m-35.425,1.552a11.36,11.36,0,0,0,9.033-4.516V61.212c-12.138,1.694-18.63,5.5-18.63,12.843,0,4.657,3.669,7.621,9.6,7.621" transform="translate(135.558 5.544)" fill="#003a92"></path><rect id="Rectangle_1787" data-name="Rectangle 1787" width="17.924" height="98.653" transform="translate(778.839 -0.001)" fill="#003a92"></rect><path id="Path_2285" data-name="Path 2285" d="M316.2,106.182v2.979l-2.979.762a1.385,1.385,0,0,0-1.178,1.524v19.535c0,10.738-5.681,15.1-15.033,15.1-10.253,0-15.033-4.918-15.033-15.587v-19.05a1.441,1.441,0,0,0-1.178-1.524l-2.771-.762v-2.979h16.7v2.979l-4.364.831a1.52,1.52,0,0,0-1.247,1.593v19.535c0,8.313,3.187,11.846,9.075,11.846,6.72,0,9.214-4.364,9.214-11.638V111.516c0-.9-.346-1.385-1.178-1.524l-4.364-.831v-2.979Z" transform="translate(65.904 25.17)" fill="#003a92"></path><path id="Path_2286" data-name="Path 2286" d="M350.5,111.516V145.53H344.47l-19.882-31.1v25.909a1.4,1.4,0,0,0,1.247,1.524l4.572.762v2.91H315.1v-2.91l4.018-.762a1.4,1.4,0,0,0,1.247-1.524V111.516a1.4,1.4,0,0,0-1.247-1.524l-4.018-.831v-2.979h12.331l18.912,29.442V111.516a1.452,1.452,0,0,0-1.316-1.524l-4.226-.831v-2.979h14.617v2.979l-3.672.831a1.4,1.4,0,0,0-1.247,1.524" transform="translate(74.692 25.17)" fill="#003a92"></path><path id="Path_2287" data-name="Path 2287" d="M371.25,109.161l-3.949.831a1.367,1.367,0,0,0-1.316,1.524v28.818a1.4,1.4,0,0,0,1.316,1.524l3.949.762v2.91H353.793v-2.91l4.018-.762a1.4,1.4,0,0,0,1.247-1.524V111.516a1.4,1.4,0,0,0-1.247-1.524l-4.018-.831v-2.979H371.25Z" transform="translate(83.864 25.17)" fill="#003a92"></path><path id="Path_2288" data-name="Path 2288" d="M377.616,111.239a1.783,1.783,0,0,0-1.455-1.247l-3.048-.831v-2.979H389.6v2.979l-5.057.97,10.322,29.1,9.283-29.1-5.057-.97v-2.979h13.716v2.979l-3.187.831a1.783,1.783,0,0,0-1.455,1.247l-11.5,34.429h-6.235Z" transform="translate(88.444 25.17)" fill="#003a92"></path><path id="Path_2289" data-name="Path 2289" d="M436.112,116.227l-1.247-4.78a2.14,2.14,0,0,0-1.455-1.524,17.77,17.77,0,0,0-4.919-.554H422.88v14.271l11.777-.416v4.3l-11.777-.277v14.894h6.927a17.589,17.589,0,0,0,5.265-.623,2.348,2.348,0,0,0,1.385-1.524l1.94-5.75,3.394.485a72.192,72.192,0,0,1-1.039,10.807H410.688v-2.91l4.018-.762a1.4,1.4,0,0,0,1.247-1.524V111.516a1.4,1.4,0,0,0-1.247-1.524l-4.018-.831v-2.979h28.749a53.888,53.888,0,0,1,.069,10.045Z" transform="translate(97.351 25.17)" fill="#003a92"></path><path id="Path_2290" data-name="Path 2290" d="M444.12,145.6v-2.91l4.018-.762a1.359,1.359,0,0,0,1.247-1.524V111.513a1.334,1.334,0,0,0-1.247-1.455l-4.018-.831v-2.979h8.659c2.909,0,5.265-.346,8.729-.346,10.46,0,14.548,3.187,14.548,10.46,0,7.759-4.78,10.045-8.521,11.015,2.217,1.247,3.672,3.048,5.126,6.027l3.464,6.858a2.586,2.586,0,0,0,2.078,1.8l2.632.623v2.91h-8.729c-1.524,0-2.632-2.286-4.226-5.75l-2.563-5.819a20.9,20.9,0,0,0-3.187-5.542h-5.819V140.47c0,.9.416,1.316,1.316,1.455l4.156.762v2.91Zm24.592-28.887c0-5.2-2.078-7.759-8.105-7.759-1.732,0-3.394.208-4.295.277v16.141c2.009.139,4.711.139,5.68.139,3.949-.069,6.72-2.7,6.72-8.8" transform="translate(105.276 25.103)" fill="#003a92"></path><path id="Path_2291" data-name="Path 2291" d="M493.085,146.494a26.43,26.43,0,0,1-12.608-3.187,49.844,49.844,0,0,1,.554-10.253h4.018l.9,6.1a2.881,2.881,0,0,0,1.039,1.8,9.217,9.217,0,0,0,6.443,2.425c4.433,0,6.789-2.355,6.789-6.165,0-4.711-3.672-6.512-8.729-8.936-4.988-2.425-10.53-5.126-10.53-11.915,0-6.165,4.5-10.738,13.37-10.738A27.22,27.22,0,0,1,505.07,107.7a44.662,44.662,0,0,1-.485,9.7h-3.88l-1.039-5.334a2.994,2.994,0,0,0-1.039-1.94,8.6,8.6,0,0,0-5.057-1.524c-3.949,0-6.1,2.078-6.1,5.473,0,4.364,3.325,5.958,9.006,8.729,5.542,2.771,10.737,5.819,10.737,12.123,0,5.68-4.087,11.569-14.132,11.569" transform="translate(113.877 25.037)" fill="#003a92"></path><path id="Path_2292" data-name="Path 2292" d="M525.976,109.161l-3.948.831a1.367,1.367,0,0,0-1.316,1.524v28.818a1.4,1.4,0,0,0,1.316,1.524l3.948.762v2.91H508.519v-2.91l4.018-.762a1.4,1.4,0,0,0,1.247-1.524V111.516a1.4,1.4,0,0,0-1.247-1.524l-4.018-.831v-2.979h17.457Z" transform="translate(120.541 25.17)" fill="#003a92"></path><path id="Path_2293" data-name="Path 2293" d="M536.577,145.53v-2.91l5.958-.97a1.349,1.349,0,0,0,1.316-1.455V109.369h-2.7a18.508,18.508,0,0,0-4.641.485,1.875,1.875,0,0,0-1.316,1.524l-1.8,7.62h-3.533a60.869,60.869,0,0,1,.069-12.816h34.707a60.965,60.965,0,0,1,0,12.816H561.1l-1.87-7.689a1.8,1.8,0,0,0-1.247-1.455,17.482,17.482,0,0,0-4.572-.485h-2.7V140.2a1.349,1.349,0,0,0,1.316,1.455l5.888.97v2.91Z" transform="translate(125.527 25.17)" fill="#003a92"></path><path id="Path_2294" data-name="Path 2294" d="M571.18,145.53v-2.91l4.78-.97c.9-.139,1.316-.554,1.316-1.455v-9.837L566.262,111.1a2.388,2.388,0,0,0-1.524-1.178l-3.187-.762v-2.979h16.7v2.979l-4.434.97,8.521,15.656,7.828-15.656-4.572-.97v-2.979h13.3v2.979l-3.048.693a2.188,2.188,0,0,0-1.524,1.178l-9.975,19.4V140.2c0,.9.416,1.316,1.316,1.455l4.849.97v2.91Z" transform="translate(133.112 25.17)" fill="#003a92"></path><path id="Path_2295" data-name="Path 2295" d="M79.937.373H0V15.38s.979.049,10.908,1.981c15.4,3,16.324,1.959,16.194,12.928l.006,92.282c0,27.908,21.123,50.614,47.092,50.614h5.736Z" transform="translate(0 0.088)" fill="#003a92"></path><path id="Path_2296" data-name="Path 2296" d="M64.619.373V83.407l79.264,89.778V90.216Z" transform="translate(15.317 0.088)" fill="#23bdc1"></path><path id="Path_2297" data-name="Path 2297" d="M128.693.373h79.936V15.38s-.978.049-10.908,1.981c-15.4,3-16.324,1.959-16.194,12.928l-.006,92.282c0,27.908-21.123,50.614-47.092,50.614h-5.736Z" transform="translate(30.506 0.088)" fill="#003a92"></path></svg> 