<?xml version="1.0" encoding="UTF-8"?><svg id="Layer_2" xmlns="http://www.w3.org/2000/svg" viewBox="0 0 95.66 137.36"><defs><style>.cls-1{fill:#eba322;}</style></defs><g id="Layer_1-2"><g><rect class="cls-1" x="57.45" y="133.55" width="32" height=".37"/><rect class="cls-1" x="4.69" y="133.55" width="33.5" height=".37"/><path class="cls-1" d="m28.33,76.74c-1.45.86-3.22,1.31-5.35,1.31-7.08,0-10.59-5.47-10.59-14.93v-13.58c0-5.65.55-6.08,5.17-6.45v-1.97H0v1.97c4.68.43,5.24.8,5.24,6.45v14.81c0,7.19,1.66,11.73,5.23,14.5,2.83,2.21,6.59,3.07,10.47,3.07,3.03,0,5.98-.73,8.44-2.17l-1.06-3.02Z"/><path class="cls-1" d="m33.32,46.65c.31,1.84.56,4.3.56,9.09v5.84c0,.93-.03,1.83-.08,2.69l2.17,5.93c.58-2.46.8-5.25.8-8.37v-6.08c0-4.79.19-7.19.49-9.03.25-2.27,1.72-3.38,5.23-3.63v-1.97h-15.15v1.97c4.25.31,5.67,1.35,5.97,3.57"/><path class="cls-1" d="m14.47,82.78c.05-.14.11-.34.18-.58-1.12-.33-2.15-.78-3.1-1.3l-.04.1c-2.1,5.28-2.89,5.9-6.9,6.39v1.96h13.61v-1.96c-4.49-.55-4.8-1.29-3.76-4.61"/><path class="cls-1" d="m55.98,75.69c-1.18,0-2.23-.23-2.78-.5v-11.53c0-.91.14-1.41.46-1.68.27-.27.96-.5,2-.5,3.1,0,6.1,1.81,6.1,6.9,0,5.99-3.64,7.31-5.78,7.31m8.33-14.07c-1.82-1.27-4.42-1.77-7.87-1.77h-12.11v1.45c3.23.32,3.64.55,3.64,4.45v17.71c0,3.09-.48,4.18-2.61,4.29h0c-3.65,0-4.75-1.79-6.68-6.93-.9-2.4-9.67-26.54-11.76-32.32l-2.71.74-9.08,22.73c.52,1.11,1.2,2.09,2.06,2.89,2.09-5.94,4.78-13.39,5.9-16.28h.12s8.59,24.62,8.75,25.01c1.27,3.27.45,4.76-3.2,4.66v1.12h28.81v-1.45c-3.96-.32-4.37-.59-4.37-4.45v-6.58l3.19.82c.55,0,1.27,0,1.96-.09,4.69-.55,9.19-3.36,9.19-9.35,0-3-1.23-5.17-3.23-6.63"/><path class="cls-1" d="m79.78,87.59c-2.64.05-3.5-.91-3.5-4.22v-8.76h1.32c5.33,0,8.19,2.09,8.19,6.49s-3.05,6.45-6.01,6.49m-3.5-23.43c0-1.18.14-1.77.5-2.09.32-.27,1.14-.5,2.18-.5,3.19,0,5.37,1.95,5.37,5.72s-2,5.59-6.64,5.59h-1.41v-8.72Zm6.92,9.35v-.18c3.05-.64,6.78-2.45,6.78-6.77,0-2.18-1-4.08-2.64-5.18-1.64-1.09-3.83-1.54-7.28-1.54h-12.7v1.45c3.37.32,3.69.59,3.69,4.45v17.71c0,3.81-.36,4.13-4.01,4.4v1.5h11.02c3.73,0,7.05-.59,9.38-1.91,2.59-1.41,4.28-3.77,4.28-6.81,0-4.41-3.5-6.49-8.51-7.13"/><path class="cls-1" d="m14.15,94.48c-.83.05-1.15.24-1.21.82-.04.37-.08.97-.08,2.25v1.14c0,1.64-.25,2.82-1.04,3.66-.65.67-1.59.96-2.51.96-.82,0-1.62-.19-2.23-.66-.84-.64-1.23-1.67-1.23-3.31v-3.46c0-1.25-.13-1.3-1.21-1.4v-.39h3.59v.39c-1.09.07-1.2.15-1.2,1.4v3.16c0,2.24.89,3.53,2.62,3.53,2.01,0,2.63-1.68,2.63-3.97v-1.04c0-1.28-.04-1.86-.1-2.29-.07-.54-.36-.71-1.35-.78v-.39h3.31v.39Z"/><path class="cls-1" d="m25.12,94.48c-.78.04-1.12.22-1.17.82-.06.43-.08,1.06-.08,2.35v5.6h-.43l-5.93-7.28h-.03v3.48c0,1.28.04,1.95.08,2.35.07.7.39.87,1.33.93v.39h-3.3v-.39c.79-.04,1.16-.22,1.23-.9.04-.43.08-1.11.08-2.38v-3.06c0-1.01-.03-1.08-.28-1.4-.29-.35-.58-.46-1.24-.51v-.39h2.05l5.82,6.97h.04v-3.42c0-1.29-.04-1.92-.1-2.31-.07-.64-.39-.82-1.36-.86v-.39h3.29v.39Z"/><path class="cls-1" d="m26.56,103.12v-.39c1.14-.08,1.25-.17,1.25-1.35v-5.56c0-1.18-.11-1.26-1.25-1.35v-.39h3.69v.39c-1.14.08-1.25.16-1.25,1.35v5.56c0,1.19.11,1.26,1.25,1.35v.39h-3.69Z"/><path class="cls-1" d="m40.89,94.48c-.94.11-1.13.24-1.66,1.47-.37.92-1.84,4.44-2.89,7.32h-.43c-.93-2.54-2.07-5.56-2.88-7.57-.41-1.03-.62-1.14-1.46-1.22v-.39h3.41v.39c-.99.1-1.03.21-.81.82.35.99,1.37,3.68,2.31,6.07h.03c.7-1.75,1.75-4.46,2.2-5.85.26-.8.18-.9-.95-1.04v-.39h3.13v.39Z"/><path class="cls-1" d="m49.23,100.93c-.08.46-.36,1.76-.49,2.19h-6.71v-.39c1.27-.1,1.38-.21,1.38-1.35v-5.53c0-1.24-.11-1.29-1.2-1.37v-.39h6.21c0,.35.07,1.29.11,2l-.4.05c-.12-.59-.26-.89-.45-1.18-.19-.3-.57-.4-1.57-.4h-1.06c-.43,0-.46.04-.46.45v3.16h1.31c1.26,0,1.33-.11,1.5-1.04h.4v2.65h-.4c-.18-.99-.28-1.07-1.49-1.07h-1.32v2.62c0,.65.09.96.33,1.12.26.18.75.18,1.45.18,1.06,0,1.45-.11,1.75-.47.24-.27.5-.76.7-1.3l.4.06Z"/><path class="cls-1" d="m53.87,98.74c.7,0,1.15-.11,1.5-.4.54-.42.77-.97.77-1.72,0-1.5-.99-2.06-2.04-2.06-.4,0-.64.06-.75.14-.11.07-.15.22-.15.61v3.43h.67Zm5.11,4.5c-.17,0-.33,0-.49-.02-1.06-.05-1.63-.36-2.25-1.26-.49-.68-.99-1.54-1.41-2.22-.24-.39-.47-.56-1.18-.56h-.45v2.21c0,1.18.13,1.26,1.23,1.35v.39h-3.65v-.39c1.14-.08,1.25-.17,1.25-1.35v-5.58c0-1.18-.11-1.22-1.19-1.32v-.39h3.45c1.01,0,1.7.13,2.21.47.57.36.93.99.93,1.82,0,1.19-.75,1.93-1.77,2.39.24.44.82,1.37,1.24,2,.5.72.78,1.08,1.13,1.45.36.41.7.57,1,.65l-.05.36Z"/><path class="cls-1" d="m65.05,96.19c-.24-.87-.61-1.83-1.82-1.83-1.07,0-1.55.76-1.55,1.52,0,1.01.67,1.5,1.77,2.05,1.1.57,2.41,1.21,2.41,2.78,0,1.46-1.24,2.62-3.09,2.62-.57,0-1.03-.11-1.37-.21-.35-.11-.56-.23-.69-.29-.1-.29-.28-1.49-.38-2.15l.42-.1c.21.85.83,2.25,2.28,2.25,1.06,0,1.68-.65,1.68-1.67s-.77-1.51-1.81-2.07c-.89-.49-2.3-1.17-2.3-2.74,0-1.34,1.07-2.48,2.87-2.48.64,0,1.23.16,1.75.32.05.49.13,1.04.24,1.91l-.41.07Z"/><path class="cls-1" d="m67.73,103.12v-.39c1.14-.08,1.26-.17,1.26-1.35v-5.56c0-1.18-.11-1.26-1.26-1.35v-.39h3.69v.39c-1.14.08-1.25.16-1.25,1.35v5.56c0,1.19.11,1.26,1.25,1.35v.39h-3.69Z"/><path class="cls-1" d="m80.49,96.25c-.14-.67-.28-1.02-.43-1.24-.24-.33-.46-.45-1.52-.45h-.98v6.85c0,1.1.11,1.24,1.42,1.32v.39h-3.98v-.39c1.27-.08,1.38-.22,1.38-1.32v-6.85h-.87c-1.15,0-1.43.13-1.61.43-.17.24-.28.64-.45,1.25h-.4c.07-.83.14-1.74.17-2.5h.28c.2.32.37.35.77.35h5.5c.38,0,.49-.08.7-.35h.29c.02.64.07,1.65.15,2.45l-.42.05Z"/><path class="cls-1" d="m90.47,94.48c-.96.11-1.13.25-1.65,1.1-.63,1.01-1.1,1.82-1.76,3.04-.19.36-.23.51-.23.87v1.89c0,1.17.11,1.26,1.39,1.35v.39h-3.93v-.39c1.24-.08,1.35-.17,1.35-1.35v-1.85c0-.28-.06-.4-.29-.84-.49-.85-1-1.76-1.76-3.04-.55-.96-.71-1.11-1.54-1.18v-.39h3.33v.39c-1,.12-.96.29-.71.75.6,1.11,1.28,2.25,1.88,3.29.51-.92,1.27-2.28,1.65-3.12.32-.69.28-.81-.81-.92v-.39h3.08v.39Z"/><path class="cls-1" d="m7.79,122.25h-.02c-.33.88-.66,1.79-.98,2.65h1.92s-.92-2.65-.92-2.65Zm1.02,5.55v-.29c.66-.08.75-.17.61-.57-.14-.4-.34-.97-.57-1.6h-2.22c-.17.47-.32.9-.46,1.34-.22.66-.13.76.66.83v.29h-2.27s0-.29,0-.29c.67-.1.81-.16,1.17-1.08l2.15-5.44.32-.1c.65,1.77,1.34,3.75,2.01,5.56.32.89.47.99,1.14,1.05v.29h-2.55Z"/><path class="cls-1" d="m17.85,122.66c-.1-.5-.21-.76-.32-.92-.18-.25-.34-.33-1.13-.33h-.73v5.12c0,.82.08.93,1.06.99v.29h-2.98s0-.29,0-.29c.95-.06,1.03-.17,1.03-.99v-5.12s-.65,0-.65,0c-.86,0-1.07.09-1.2.32-.13.18-.21.48-.33.94h-.3c.05-.62.1-1.3.12-1.87h.21c.15.24.28.26.57.26h4.11c.28,0,.36-.06.52-.26h.22c.01.47.05,1.23.12,1.83l-.31.03Z"/><path class="cls-1" d="m24.99,124.54c.13.05.41.13.76.13.68,0,1.51-.37,1.51-1.68,0-1.12-.72-1.6-1.57-1.6-.29,0-.51.05-.58.13-.08.06-.11.19-.11.49v2.54Zm.84-3.49c.74,0,1.34.12,1.76.42.4.31.67.79.67,1.47,0,1.35-1.01,2-2.03,2.13-.16.02-.35.02-.47,0l-.77-.19v1.63c0,.88.09.94,1.03,1v.29h-2.82s0-.29,0-.29c.83-.06.92-.14.92-1v-4.15c0-.92-.08-.96-.85-1.01v-.29h2.57Z"/><path class="cls-1" d="m30.43,127.8v-.29c.85-.06.94-.12.94-1.01v-4.15c0-.88-.08-.95-.94-1.01v-.29h2.76s0,.29,0,.29c-.85.06-.94.12-.94,1.01v4.15c0,.89.08.94.94,1.01v.29h-2.76Z"/><path class="cls-1" d="m42.64,121.35c-.58.03-.83.16-.88.61-.04.32-.06.79-.06,1.76v4.18h-.32s-4.43-5.44-4.43-5.44h-.02v2.61c0,.96.03,1.45.06,1.75.05.53.29.66,1,.7v.29h-2.47s0-.29,0-.29c.59-.03.86-.17.91-.67.03-.32.07-.83.07-1.78v-2.28c0-.76-.02-.81-.21-1.05-.22-.26-.44-.35-.93-.38v-.29h1.53s4.35,5.21,4.35,5.21h.03v-2.55c0-.97-.03-1.43-.07-1.72-.05-.48-.29-.61-1.02-.64v-.29h2.46s0,.29,0,.29Z"/><path class="cls-1" d="m49.94,126.16c-.06.35-.27,1.32-.37,1.64h-5.01s0-.29,0-.29c.95-.07,1.03-.16,1.03-1.01v-4.14c0-.92-.09-.97-.89-1.02v-.29h4.64c0,.26.05.97.08,1.5l-.3.04c-.09-.43-.2-.67-.33-.88-.14-.23-.42-.3-1.17-.3h-.79c-.32,0-.34.03-.34.33v2.37s.98,0,.98,0c.95,0,1-.08,1.12-.78h.3s0,1.98,0,1.98h-.3c-.14-.74-.21-.8-1.11-.8h-.99v1.96c0,.49.06.71.25.84.2.14.56.14,1.08.14.79,0,1.08-.08,1.31-.35.18-.21.38-.57.52-.97l.3.04Z"/><path class="cls-1" d="m57.27,126.51c0,.74.19.94.86.94.84-.01,1.6-.44,1.6-1.53s-.73-1.52-2-1.52h-.47v2.11Zm.49-2.46c1.13,0,1.61-.46,1.61-1.33,0-.7-.39-1.33-1.38-1.33-.25,0-.49.04-.58.11-.1.06-.13.18-.13.52v2.03s.49,0,.49,0Zm1.17.13c1.03.15,1.83.61,1.83,1.65,0,.7-.37,1.24-.99,1.57-.53.29-1.21.41-2.04.41h-2.3s0-.29,0-.29c.89-.06.96-.12.96-.99v-4.19c0-.86-.04-.93-.87-.98v-.29h2.67c.78,0,1.24.12,1.56.35.36.25.58.71.58,1.18,0,.99-.83,1.39-1.41,1.56v.02Z"/><path class="cls-1" d="m67.99,126.17c-.07.32-.28,1.3-.38,1.63h-4.72s0-.29,0-.29c.87-.06.96-.13.96-1.02v-4.15c0-.89-.06-.94-.91-1v-.29h2.72s0,.29,0,.29c-.82.06-.92.1-.92,1v4.1c0,.56.05.77.24.87.21.12.56.14,1,.14.57,0,.93-.05,1.17-.32.19-.21.37-.54.53-1.02l.31.06Z"/><path class="cls-1" d="m76.45,121.35c-.63.04-.87.18-.9.61-.03.28-.06.73-.06,1.68v.85c0,1.23-.19,2.11-.78,2.74-.49.5-1.18.72-1.87.72-.61,0-1.21-.15-1.66-.5-.62-.48-.91-1.25-.91-2.47v-2.58c0-.94-.1-.97-.91-1.04v-.29h2.68s0,.29,0,.29c-.81.05-.89.11-.89,1.04v2.36c0,1.67.66,2.64,1.95,2.64,1.5,0,1.97-1.26,1.97-2.97v-.78c0-.95-.03-1.39-.07-1.71-.05-.4-.27-.52-1.01-.58v-.29h2.48s0,.29,0,.29Z"/><path class="cls-1" d="m82.48,122.62c-.09-.41-.16-.62-.29-.83-.18-.29-.39-.39-1.19-.39h-.79c-.31,0-.34.03-.34.33v2.47s1.07,0,1.07,0c.95,0,1-.09,1.12-.77h.3s0,2,0,2h-.3c-.13-.72-.18-.83-1.12-.83h-1.07v1.88c0,.89.08.96,1.03,1.02v.29h-2.83s0-.29,0-.29c.83-.06.92-.12.92-1.02v-4.14c0-.9-.08-.95-.89-1.01v-.29h4.58c.01.37.06,1.03.1,1.53l-.3.04Z"/><path class="cls-1" d="m89.33,122.62c-.1-.41-.15-.62-.29-.83-.18-.29-.39-.39-1.19-.39h-.79c-.31,0-.34.03-.34.33v2.47s1.07,0,1.07,0c.95,0,1-.09,1.12-.77h.3s0,2,0,2h-.3c-.12-.72-.18-.83-1.12-.83h-1.07v1.88c0,.89.08.96,1.03,1.02v.29h-2.83s0-.29,0-.29c.83-.06.91-.12.91-1.02v-4.14c0-.9-.08-.95-.88-1.01v-.29h4.58c0,.37.06,1.03.11,1.53l-.3.04Z"/><path class="cls-1" d="m19.58,109.04h-.03c-.45,1.18-.88,2.4-1.31,3.54h2.56l-1.23-3.54Zm1.37,7.43v-.39c.88-.11,1-.22.82-.76-.18-.54-.46-1.29-.77-2.14h-2.96c-.22.63-.43,1.21-.61,1.79-.29.87-.18,1.01.88,1.11v.39h-3.04v-.39c.89-.12,1.09-.21,1.56-1.45l2.88-7.28.43-.12c.86,2.38,1.79,5.03,2.69,7.45.43,1.19.63,1.32,1.53,1.4v.39h-3.41Z"/><path class="cls-1" d="m28.76,112.08c.7,0,1.15-.11,1.5-.4.54-.42.77-.97.77-1.73,0-1.5-.99-2.06-2.03-2.06-.4,0-.64.06-.75.14-.11.07-.15.22-.15.61v3.43h.67Zm5.11,4.5c-.17,0-.33,0-.49-.01-1.06-.06-1.63-.36-2.25-1.26-.49-.68-.99-1.54-1.41-2.22-.24-.39-.47-.56-1.18-.56h-.44v2.21c0,1.18.12,1.27,1.23,1.35v.39h-3.65v-.39c1.14-.08,1.25-.17,1.25-1.35v-5.58c0-1.18-.11-1.22-1.19-1.32v-.39h3.45c1.02,0,1.7.13,2.21.47.57.36.93.99.93,1.82,0,1.19-.75,1.93-1.77,2.39.24.45.82,1.37,1.24,2,.5.72.78,1.08,1.13,1.44.37.42.7.57,1.01.65l-.06.36Z"/><path class="cls-1" d="m41.68,116.47c-1.08-1.21-2.21-2.57-3.45-4.04-.33-.37-.51-.42-.75-.37v2.64c0,1.21.13,1.31,1.28,1.39v.39h-3.62v-.39c1.06-.08,1.17-.18,1.17-1.39v-5.45c0-1.26-.11-1.33-1.21-1.41v-.39h3.59v.39c-1.07.08-1.21.18-1.21,1.41v2.43c.31-.07.59-.26.98-.63.77-.73,1.7-1.71,2.33-2.47.42-.5.41-.64-.22-.71l-.32-.04v-.39h3.34v.39c-1.04.09-1.38.23-2.26,1.04-.54.49-1.53,1.49-2.46,2.43,1.04,1.32,2.57,3.03,3.27,3.78.74.79,1.02.92,1.69,1v.39h-2.13Z"/><path class="cls-1" d="m49.33,109.04h-.03c-.44,1.18-.88,2.4-1.31,3.54h2.56l-1.22-3.54Zm1.36,7.43v-.39c.88-.11,1.01-.22.82-.76-.18-.54-.46-1.29-.77-2.14h-2.97c-.22.63-.43,1.21-.61,1.79-.29.87-.18,1.01.88,1.11v.39h-3.04v-.39c.89-.12,1.09-.21,1.56-1.45l2.88-7.28.43-.12c.86,2.38,1.8,5.03,2.69,7.45.43,1.19.62,1.32,1.53,1.4v.39h-3.41Z"/><path class="cls-1" d="m64.76,107.84c-.78.04-1.11.22-1.17.82-.05.43-.08,1.06-.08,2.35v5.6h-.43l-5.93-7.28h-.03v3.49c0,1.28.04,1.94.08,2.35.07.71.39.87,1.34.93v.39h-3.3v-.39c.79-.04,1.15-.22,1.23-.9.04-.43.08-1.11.08-2.37v-3.05c0-1.01-.03-1.09-.28-1.41-.29-.35-.58-.46-1.24-.51v-.39h2.05l5.82,6.97h.04v-3.41c0-1.29-.04-1.92-.1-2.31-.07-.64-.39-.82-1.36-.86v-.39h3.28v.39Z"/><path class="cls-1" d="m71.35,109.54c-.24-.87-.61-1.83-1.82-1.83-1.07,0-1.55.77-1.55,1.51,0,1.01.67,1.5,1.77,2.06,1.1.57,2.41,1.21,2.41,2.78,0,1.46-1.24,2.62-3.09,2.62-.57,0-1.03-.11-1.37-.2-.35-.11-.55-.23-.69-.29-.1-.29-.28-1.49-.38-2.15l.42-.1c.21.85.83,2.25,2.28,2.25,1.05,0,1.67-.65,1.67-1.67s-.76-1.51-1.81-2.07c-.89-.49-2.3-1.17-2.3-2.74,0-1.33,1.07-2.47,2.87-2.47.64,0,1.23.15,1.76.32.05.49.13,1.04.23,1.92l-.4.07Z"/><path class="cls-1" d="m77.68,109.04h-.03c-.45,1.18-.87,2.4-1.31,3.54h2.56l-1.22-3.54Zm1.36,7.43v-.39c.88-.11,1.01-.22.82-.76-.18-.54-.46-1.29-.77-2.14h-2.97c-.22.63-.43,1.21-.61,1.79-.29.87-.18,1.01.88,1.11v.39h-3.03v-.39c.89-.12,1.09-.21,1.56-1.45l2.88-7.28.43-.12c.86,2.38,1.8,5.03,2.69,7.45.43,1.19.63,1.32,1.53,1.4v.39h-3.41Z"/><path class="cls-1" d="m88.38,109.54c-.24-.87-.61-1.83-1.83-1.83-1.07,0-1.54.77-1.54,1.51,0,1.01.67,1.5,1.77,2.06,1.1.57,2.41,1.21,2.41,2.78,0,1.46-1.24,2.62-3.09,2.62-.57,0-1.03-.11-1.37-.2-.35-.11-.55-.23-.7-.29-.1-.29-.28-1.49-.37-2.15l.42-.1c.21.85.84,2.25,2.28,2.25,1.06,0,1.67-.65,1.67-1.67s-.77-1.51-1.81-2.07c-.89-.49-2.3-1.17-2.3-2.74,0-1.33,1.07-2.47,2.87-2.47.64,0,1.22.15,1.75.32.06.49.12,1.04.24,1.92l-.4.07Z"/><path class="cls-1" d="m8.56,111.34c.01-.41-.23-.74-.67-.74-.56,0-1.26.5-1.92,1.58-.45.71-.77,1.53-.77,2.15,0,.42.29.68.61.68,1.38,0,2.75-2.78,2.75-3.66m-3.92,2.58c0-1.67,1.26-3.93,3.03-3.93.89,0,1.42.65,1.42,1.55,0,1.45-1.15,4.09-3.08,4.09-.73,0-1.37-.7-1.37-1.71"/><path class="cls-1" d="m10.08,110.29c-.07,0-.09-.04-.07-.13l.05-.23c.03-.09.05-.13.16-.13h1.16c.4-1.14.85-2.24,1.55-3.02.37-.43,1.1-.9,1.96-.9.77,0,1.2.46,1.2.78,0,.41-.27.61-.53.61-.42,0-.54-.23-.58-.53-.01-.13-.15-.39-.55-.39-1.24,0-1.71,1.96-2.15,3.45h1.29c.08,0,.11.04.08.16l-.07.24c-.01.08-.04.09-.15.09h-1.26c-.34,1.08-.95,3.37-1.62,5.06-.81,2.07-1.75,3.54-3.17,3.54-.53,0-.96-.36-.96-.78,0-.3.23-.57.57-.57.39,0,.58.37.63.6.03.13.12.23.22.23.64,0,1.36-1.11,2.07-3.56l1.34-4.51h-1.18Z"/><polygon class="cls-1" points="93.47 131.91 93.47 132.14 92.79 132.14 92.79 133.92 92.51 133.92 92.51 132.14 91.83 132.14 91.83 131.91 93.47 131.91"/><path class="cls-1" d="m93.72,131.91h.39l.58,1.71.58-1.71h.39v2.02h-.26v-1.19s0-.11,0-.21c0-.09,0-.2,0-.31l-.58,1.7h-.27l-.58-1.7v.06s0,.13,0,.23c0,.1,0,.18,0,.22v1.19h-.26v-2.02Z"/><path class="cls-1" d="m38.19,137.28l.05-.23c.9-.06.98-.13,1.1-.75l.72-3.31c.1-.44.06-.49-.37-.5l-.47-.02.04-.21c.64-.09,1.28-.26,1.86-.46l-.96,4.48c-.14.63-.09.69.8.75l-.05.24h-2.72Z"/><path class="cls-1" d="m44.22,132.96c-.13.64.4.92,1.04,1.21.39-.24.72-.55.84-1.07.16-.73-.3-1.03-.76-1.04-.59,0-1.02.44-1.12.89m1.42,3.06c.14-.64-.48-1.01-1.18-1.34-.54.28-.95.71-1.06,1.18-.17.81.31,1.23.95,1.23.6,0,1.15-.4,1.28-1.06m1.2-2.96c-.06.25-.21.5-.43.69-.1.08-.4.28-.91.56.61.33,1.15.74.99,1.49-.22,1.01-1.46,1.57-2.3,1.57-1.07,0-1.79-.53-1.59-1.44.08-.39.36-.64.62-.82.19-.13.6-.37,1-.56-.58-.32-.92-.73-.79-1.33.15-.72,1.01-1.41,2.08-1.42.94,0,1.48.56,1.33,1.27"/><path class="cls-1" d="m52.24,131.98c-1.31,1.74-2.61,3.51-3.94,5.28l-.75.09-.05-.1c1.35-1.47,2.85-3.25,3.96-4.75h-2.15c-.65.01-.72.09-1.08.66h-.29c.19-.48.33-.9.45-1.27h3.79s.06.09.06.09Z"/><path class="cls-1" d="m54.86,133.99c.84.14,1.23.67,1.1,1.3-.3,1.4-2.32,2.04-3.03,2.04-.46,0-.82-.19-.93-.28-.11-.11-.13-.21-.09-.32.03-.11.18-.22.29-.28.09-.06.17-.06.24,0,.21.2.57.44,1.13.43.71,0,1.3-.47,1.48-1.31.17-.79-.45-1.1-1.01-1.1-.24,0-.5.05-.66.1v-.26c.95-.26,1.7-.59,1.83-1.23.12-.53-.24-.81-.76-.8-.55,0-1.02.36-1.34.69l-.16-.17.54-.54c.34-.27.83-.48,1.36-.49h.01c.88,0,1.36.48,1.22,1.13-.05.25-.21.45-.44.62-.18.12-.44.28-.77.46v.02Z"/><path class="cls-1" d="m57.86,51.31l4.83-1.08.03-.8-4.83,1.15.05-1.47,4.81-1.22v-.83s-4.79,1.32-4.79,1.32l.05-1.48,4.77-1.2v-.83s-4.75,1.3-4.75,1.3l.05-1.44,4.73-1.24v-.82s-4.7,1.33-4.7,1.33v-.17s0-.5.1-1.21l4.63-1.37v-.83s-4.49,1.36-4.49,1.36c.09-.47.22-.96.39-1.45l4.12-1.23v-.74s-3.82,1.26-3.82,1.26c.67-1.37,1.84-2.39,3.85-1.72,0,0-.92-1.19-2.48-.94-1.82.29-3.13,2.46-3.17,5.66l-.37,9.44.97-.2.02-.53Z"/><path class="cls-1" d="m74.98,23.32s.05.02.06.01c.03.01.06,0,.07-.05l.21-.9c.02-.08.22-.83.16-.89-.05-.07-.26.62-.28.7l-.27.8-.6-.6s-.18-.21-.2-.16c-.03.05.1.21.13.25l.71.84Z"/><path class="cls-1" d="m63.15,24.69c.64-.45.92-.94.82-.92,0,0-.43.41-.68.57-1.5,1.02-3.16.63-3.69-.87-.25-.69-.21-1.49.05-2.27.53-1.26.99-1.59.95-1.61-.15-.12-1.02,1.1-1.21,1.69-.33,1.01-.35,1.86,0,2.68.59,1.42,2.63,1.53,3.76.74Z"/><path class="cls-1" d="m61.59,24.51c1.34.03,2.75-1.22,3.14-2.78.39-1.56-.37-2.86-1.72-2.89-1.34-.03-2.75,1.22-3.14,2.79-.39,1.56.37,2.86,1.71,2.89Zm-.57-3.25c.04-.07.2.07.23.11l.71.44.44-.96c.04-.09.4-.92.45-.86.06.06-.3.94-.33,1.03l-.31,1.05c-.08.21-.23.1-.25.09l-.8-.67s-.18-.16-.14-.23Z"/><path class="cls-1" d="m85.68,56.57l-1.45-20.55-.06-.08c-3.1-.84-3.79-7.47-3.8-7.54l-.7-6.09-1.29-2.99-.9-.9-.69-1.77-7.36-6.94-.35-.02-9.48,5.07c-.31.62-.59,1.19-.86,1.77l-1.15.69-.03.02-1.67,4.41-.64,6.57c-.18,1.55-.76,2.71-1.73,3.44-1.47,1.12-3.34.84-3.36.84h-.09s0,.08,0,.08l-1.95,23.99v.09s.09,0,.09,0h37.49v-.09Zm-8.21-37.31l.48,1.18-6.12-5.4-.53-1.3,6.17,5.52Zm-3.37,5.25c.89.89,1.98.86,2.43-.07.21-.43.25-.98.14-1.53-.24-.92-.52-1.21-.48-1.21.18,0,.54.81.65,1.29.13.55.06,1.36-.22,1.76-.59.83-1.67.84-2.52-.1,0,0,0-.01-.02-.01-.41-.44-.14-.28,0-.13Zm-.78-2.08c-.13-1.1.46-1.86,1.32-1.69.86.17,1.66,1.2,1.79,2.31.13,1.1-.46,1.86-1.32,1.69-.86-.17-1.66-1.2-1.79-2.31Zm3.03-5.42l.46,1.1-6.03-5.52-.5-1.22,6.07,5.64Zm-7-6.42l1.81,4.42.05.52-3.75-.39v-.6s1.89-3.96,1.89-3.96Zm-9.4,4.67l8.85-4.68-.72,1.26-8.58,4.47.45-1.05Zm-1.24,2.28l8.88-4.75-.76,1.45-8.34,4.38.23-1.08Zm8.2,9.03l-9.31,4.87.9-12.09,8.38-4.3.03,11.51Zm-8.87-8.91l-.28,4.12-1.27.17,1.55-4.29Zm-7.35,15.46s4.73.51,5.19-4.88l.56-5.8,1.3-.14-.75,9.49-3.68,1.9-2.64-.21.02-.35Zm-.07.91l2.33.18-.11,1.86-2.37-.03.15-2.01Zm-1.75,21.99l1.57-19.47,2.33.06-1.24,19.41h-2.67Zm3.31,0l1.25-19.77,13.52-6.59v26.36s-14.76,0-14.76,0Zm1.27-20.31l.11-1.54,13.38-6.8v1.64s-13.49,6.7-13.49,6.7Zm14.05,20.31v-26.84s1.52-1.48,1.52-1.48l.06,28.32h-1.58Zm0-29.72l.03-1.99s.33.74,1.48.26v2.36s-1.5,1.57-1.5,1.57v-2.19Zm.49-2.24c-.45-.21-.48-1.26-.48-1.26l-.04-7.06,3.74.36.2,7.8-2.27-.3s-.47.77-1.15.46Zm4.51.52l.03,2.67-3.04-.38v-2.67s3.01.37,3.01.37Zm-2.91,31.44l-.1-28.63,3.01.38.35,28.25h-3.26Zm5.7-3.96v-.58l4.14,1.45.07.58-4.22-1.45Zm1.1-12.64l.05-.03c2.12-.14,2.14,5.36,2.14,5.36l.29,7.22-.57-.22-.36-7.7s-.23-4.43-1.55-4.63Zm6.91,16.6l-1.13-16.33-8.96-7.38v-.51l9.38,7.62,1.11,16.61h-.4Z"/><polygon class="cls-1" points="56.18 53.42 63.4 52.18 63.41 51.25 56.21 52.63 56.18 53.42"/><path class="cls-1" d="m68.02,9.82l1-.54-.03-.68c.16-.14.28-.34.28-.57,0-.25-.13-.46-.32-.6l-.26-7.42-.34.18-.25,7.22c-.21.14-.35.35-.35.62,0,.25.13.46.31.6l-.04,1.2Z"/></g></g></svg>