<?xml version="1.0" encoding="UTF-8"?>
<svg xmlns="http://www.w3.org/2000/svg" version="1.1" viewBox="0 0 300 300">
	<defs>
		<style type="text/css"><![CDATA[
			path {fill-opacity:1;fill-rule:nonzero;stroke:none;}
			#uon-logo-box {fill:#000;}
			#uon-logo-wordmark path, #uon-logo-seahorse, #uon-logo-seahorse-mobile {fill:#FFF;}
			#uon-logo-seahorse-mobile {display:none;}
			@media (max-width:100px) {
				#uon-logo-seahorse {display:none;}
				#uon-logo-wordmark {display:none;}
				#uon-logo-seahorse-mobile {display:block;}
			}
		]]></style>
	</defs>
	<g id="uon-logo">
		<rect id="uon-logo-box" width="300" height="300"/>
		<g id="uon-logo-wordmark">
			<path id="Australia" d="M73.996,259.474h-2.805l7.459-18.211h1.77l6.723,18.211h-3.268l-1.632-4.519h-6.506l-1.741,4.519ZM79.195,245.671l-2.696,7.16h5.091l-2.394-7.16ZM106.5,253.457c0,2.887-2.043,6.371-7.324,6.371-4.736,0-7.324-2.532-7.324-6.289v-12.224h3.13v11.896c0,2.831,1.334,4.273,4.411,4.273s4.302-2.095,4.302-4.273v-11.896h2.805v12.142h0ZM118.369,257.513c1.662,0,3.104-1.035,3.104-2.424,0-1.797-1.905-2.696-3.866-3.892-1.852-1.143-4.302-2.368-4.302-5.498,0-2.696,2.394-4.736,5.527-4.736,2.641,0,4.138.627,4.982,1.008l-.9,2.178c-.709-.328-1.905-.87-3.619-.87s-2.887.844-2.887,1.961c0,1.741,1.741,2.506,3.757,3.784,1.797,1.143,4.601,2.641,4.601,5.527,0,3.212-3.159,5.281-6.48,5.281-3.104,0-4.792-.9-5.527-1.251l.953-2.125c.654.273,2.151,1.061,4.654,1.061l.003-.003ZM129.585,241.316h14.7v2.315h-5.8v15.843h-3.13v-15.843h-5.771v-2.315h0ZM160.427,259.746l-5.146-8.467h-1.852v8.194h-3.13v-18.158h5.035c4.765,0,6.506,2.476,6.506,4.654,0,2.506-2.095,4.22-3.485,4.628l5.554,8.874-3.485.273.003.003ZM155.064,249.182c2.532,0,3.675-1.524,3.675-2.913,0-1.471-1.09-2.831-3.649-2.831h-1.688v5.744h1.662,0ZM170.063,259.474h-2.805l7.459-18.211h1.77l6.723,18.211h-3.268l-1.632-4.519h-6.506l-1.741,4.519ZM175.262,245.671l-2.696,7.16h5.091l-2.394-7.16ZM192.14,257.159h6.723v2.315h-9.856v-18.158h3.13v15.843h.003ZM205.097,259.474v-18.158h3.104v18.158h-3.104ZM216.585,259.474h-2.805l7.459-18.211h1.77l6.723,18.211h-3.268l-1.632-4.519h-6.506l-1.741,4.519ZM221.784,245.671l-2.696,7.16h5.091l-2.394-7.16Z"/>
			<path id="University_of" d="M57.735,179.144c0,2.593-1.72,7.615-8.657,7.615-5.625,0-8.623-2.863-8.623-7.411v-15.497h2.998v15.293c0,3.672,1.852,5.323,5.929,5.323,3.773,0,5.694-2.458,5.694-5.323v-15.293h2.662v15.293h-.003ZM80.745,163.851v22.468h-2.426l-13.61-17.283v17.283h-2.696v-22.468h2.426l13.61,17.484v-17.484h2.696ZM85.005,186.319v-22.468h2.998v22.468h-2.998ZM100.978,186.523h-1.315l-7.411-22.672h3.133l5.289,16.809,5.895-16.809h2.696l-8.287,22.672h0ZM126.203,186.319h-12.7v-22.468h12.295v2.257h-9.297v7.512h6.805v2.257h-6.805v8.186h9.702v2.257h0ZM142.613,186.658l-6.67-10.914h-2.492v10.578h-2.998v-22.468h5.961c5.659,0,7.141,3.469,7.141,5.39,0,2.966-2.357,5.424-4.614,5.929l6.906,11.152-3.233.336v-.003ZM135.572,173.754c3.503,0,4.985-2.257,4.985-4.008,0-1.987-1.447-3.839-4.953-3.839h-2.222v7.85h2.191v-.003ZM154.106,184.502c2.257,0,4.178-1.651,4.178-3.537,0-2.593-2.662-3.807-5.12-5.289-2.392-1.447-5.39-2.828-5.39-6.567,0-3.167,2.696-5.694,6.636-5.694,2.897,0,4.852.706,5.895,1.18l-.91,2.156c-.942-.405-2.426-1.08-4.953-1.08-2.831,0-3.807,1.55-3.807,2.863,0,2.392,2.191,3.336,4.985,5.054,2.392,1.516,5.794,3.064,5.794,6.94,0,3.638-3.672,6.234-7.445,6.234s-5.929-1.111-6.871-1.55l.976-2.088c.81.336,2.863,1.381,6.03,1.381l.003-.003ZM165.653,186.253v-22.468h2.998v22.468h-2.998ZM172.905,163.851h17.314v2.257h-7.175v20.214h-2.998v-20.214h-7.141v-2.257ZM210.41,163.851l-7.242,11.589v10.882h-2.998v-10.882l-7.109-11.589h3.233l5.659,9.332,5.625-9.332h2.831ZM242.951,175.101c0,7.075-4.683,11.655-10.948,11.655s-10.948-4.514-10.948-11.655c0-6.67,4.313-11.689,10.948-11.689,7.041,0,10.948,4.85,10.948,11.689ZM224.287,175.101c0,5.659,3.032,9.467,7.715,9.467s7.715-3.807,7.715-9.467-3.032-9.501-7.715-9.501-7.715,3.842-7.715,9.501h0ZM247.269,186.319v-22.468h11.623v2.257h-8.623v7.512h6.064v2.257h-6.064v10.443h-3Z"/>
			<path id="Newcastle" d="M64.968,195.357v27.165h-5.498l-14.092-18.082v18.082h-4.927v-27.165h5.13l14.457,18.489v-18.489h4.929ZM86.82,222.52h-17.513v-27.165h17.023v4.233h-11.239v6.842h8.226v4.236h-8.226v7.615h11.729v4.239ZM101.896,222.766h-3.543l-8.919-27.408h5.702l5.863,18.571,3.911-10.75-2.524-7.818h5.741l5.58,18,6.149-18h5.009l-10.017,27.408h-3.543l-4.44-13.645-4.969,13.645v-.003ZM148.413,221.054c-1.916,1.019-4.561,1.995-9.692,1.995-8.064,0-14.335-5.781-14.335-14.089s6.271-14.131,14.335-14.131c5.662,0,8.268,1.304,9.448,1.995l-1.63,3.908c-.897-.407-3.014-1.548-7.207-1.548s-8.879,3.95-8.879,9.774,4.522,9.731,8.879,9.731c3.993,0,5.945-.937,7.371-1.505l1.709,3.868v.003ZM154.559,222.52h-5.173l11.078-27.244h3.95l10.02,27.244h-5.945l-2.077-6.109h-9.57l-2.281,6.109h-.003ZM161.933,202.729l-3.707,9.895h6.964l-3.257-9.895ZM184.028,218.815c2.199,0,4.194-1.058,4.194-2.932,0-2.199-2.484-3.421-5.416-5.252-2.606-1.63-6.313-3.625-6.313-8.472,0-4.236,3.95-7.332,8.512-7.332s6.556,1.058,7.818,1.63l-1.63,3.868c-.979-.489-2.77-1.262-4.847-1.262-1.913,0-4.032.611-4.032,2.402,0,2.281,2.606,3.381,5.255,5.13,2.484,1.63,6.72,4.236,6.72,8.144,0,5.294-4.969,8.308-10.345,8.308-4.561,0-7.168-1.302-8.226-1.913l1.63-3.829c.976.447,2.974,1.508,6.678,1.508h.003ZM195.775,195.357h23.132v4.233h-8.673v22.929h-5.784v-22.929h-8.676v-4.233ZM228.129,218.284h10.059v4.236h-15.843v-27.165h5.784v22.929ZM258.632,222.52h-17.513v-27.165h17.023v4.233h-11.239v6.842h8.226v4.236h-8.226v7.615h11.729v4.239Z"/>
		</g>
		<path id="uon-logo-seahorse" d="M143.428,42.302c.021,0,.042.019.042.042s-.021.034-.04.042c-14.616,5.109-19.256,22.902-19.256,22.902-.005.026.003.053.026.066.029.021.069.013.093-.016,26.453-34.644,51.091-23.434,51.091-23.434.045.011.071.056.058.101-.008.037-.042.066-.079.061-.471-.045-7.755-.63-10.189,6.096l36.727,41.005c0,1.193-.458,2.254-1.196,3.183-.381-.558-1.958-1.296-3.006-1.632-1.437-.466-2.773-.696-2.773-1.765,0-.775.677-.984,1.032-.984.315,0,.492.148.492.148.005.008.016.011.024.003s.011-.016.005-.021c0,0-.249-.545-.982-.556-.714-.019-1.849.492-1.918,1.844-.05,1.117.479,1.722,1.291,2.283.802.556,2.376,1.265,2.376,2.434s-.894,1.447-1.095,1.54c-.389.188-3.717,1.688-6.974,2.299-.164-.569-.172-2.466-3.519-5.813-6.474-6.474-29.575-1.058-29.575-16.986,0-7.347,6.98-10.279,10.972-10.062,3.384.185,4.81,1.228,5.064,1.389.019.013.048.013.069-.003.034-.021.048-.064.024-.098,0,0-2.535-5.58-9.739-5.58-7.972,0-19.169,5.834-19.169,18.568,0,26.432,37.031,24.77,37.031,47.109,0,8.715-5.12,13.168-11.562,15.457,0,0,3.082-2.18,3.082-6.329,0-18.897-43.778-14.835-43.778-35.592,0-8.08,6.892-11.007,8.66-11.007.04,0,.074-.034.074-.074,0-.026-.013-.05-.034-.061-.214-.132-1.334-.717-3.432-.717-5.482,0-15.931,4.937-15.931,17.497,0,14.962,19.463,24.371,19.463,31.596,0,3.146-1.976,5.276-1.976,5.276-15.991-5.099-36.422-21.135-36.422-49.726,0-34.581,32.29-50.488,44.955-50.488"/>
		<path id="uon-logo-seahorse-mobile" d="M140.105,78.197c.031,0,.061.026.061.061s-.031.051-.059.063c-21.398,7.482-28.192,33.529-28.192,33.529-.006.037.006.077.039.098.045.033.1.018.134-.022,38.729-50.722,74.804-34.312,74.804-34.312.067.018.104.079.085.146-.012.057-.061.096-.116.091-.689-.065-11.355-.921-14.916,8.925l53.77,60.034c0,1.748-.671,3.3-1.752,4.66-.557-.817-2.867-1.899-4.402-2.391-2.104-.681-4.06-1.019-4.06-2.586,0-1.136.994-1.441,1.513-1.441.462,0,.72.216.72.216.008.01.024.014.033.004.012-.01.014-.022.01-.033,0,0-.364-.799-1.435-.815-1.045-.026-2.708.722-2.808,2.7-.073,1.635.701,2.521,1.891,3.344,1.173.813,3.479,1.85,3.479,3.564s-1.311,2.118-1.604,2.255c-.571.276-5.442,2.472-10.21,3.365-.24-.832-.254-3.609-5.154-8.508-9.48-9.48-43.302-1.549-43.302-24.87,0-10.759,10.218-15.051,16.065-14.731,4.957.272,7.042,1.795,7.415,2.033.028.02.069.018.102-.004.051-.031.069-.096.037-.144,0,0-3.712-8.169-14.262-8.169-11.672,0-28.066,8.541-28.066,27.184,0,38.699,54.219,36.267,54.219,68.973,0,12.759-7.494,19.277-16.929,22.632,0,0,4.511-3.192,4.511-9.267,0-27.668-64.094-21.721-64.094-52.111,0-11.83,10.092-16.114,12.68-16.114.059,0,.108-.049.108-.108,0-.037-.02-.071-.051-.089-.313-.191-1.952-1.051-5.024-1.051-8.026,0-23.325,7.227-23.325,25.618,0,21.904,28.495,35.682,28.495,46.26,0,4.607-2.893,7.726-2.893,7.726-23.411-7.467-53.327-30.945-53.327-72.803,0-50.629,47.278-73.917,65.818-73.917"/>
	</g>
</svg>