<svg xmlns="http://www.w3.org/2000/svg" xmlns:xlink="http://www.w3.org/1999/xlink" version="1.1" id="Layer_1" x="0px" y="0px" viewBox="0 0 69.5 50.4" style="enable-background:new 0 0 69.5 50.4;" xml:space="preserve">
<style type="text/css">
	.st0{fill:#FFFFFF;}
	.st1{opacity:0.25;fill:#63C6C3;enable-background:new    ;}
	.st2{fill:#424143;}
	.st3{fill:none;stroke:#424143;stroke-width:1.3519;stroke-linecap:round;stroke-linejoin:round;}
	.st4{fill:#C2C0C4;}
	.st5{fill:#B2B0B5;}
	.st6{fill:#63C6C3;}
	.st7{fill:none;stroke:#424143;stroke-width:1.0161;stroke-linecap:round;stroke-linejoin:round;}
</style>
<title>Asset 1</title>
<rect x="11" y="22.2" class="st0" width="48.1" height="27.5"/>
<g id="Layer_2">
	<g id="Layer_1-2">
		<path class="st1" d="M34.7,0C15.5,0,0,14.9,0,33.4C0,39,1.4,44.2,4,50h6.8v-1.2l0,0V27.6L8,27.7l5.5-8.8h16.1l5.6-4.8l6.4,5.5    l15.3-0.6l5.3,8.7h-3.3v21.9l-0.2,0.4l0.3-0.1h6.5c2.5-5.1,3.9-10.7,4-16.4C69.4,14.9,53.9,0,34.7,0z M41.6,10.6h-6.3v-4h6.3V10.6    z"/>
		<g>
			<path class="st2" d="M35.6,5.9h6.1c0.5,0,1,0.4,1,1v3.9c0,0.5-0.4,1-1,1h-6.1c-0.5,0-1-0.4-1-1V6.8C34.7,6.3,35.1,5.9,35.6,5.9z"/>
			<path class="st2" d="M41.7,6c0.4,0,0.8,0.4,0.8,0.8v3.9c0,0.4-0.4,0.8-0.8,0.8h-6.1c-0.4,0-0.8-0.4-0.8-0.8V6.8     c0-0.4,0.4-0.8,0.8-0.8L41.7,6 M41.7,5.7h-6.1c-0.6,0-1.1,0.5-1.1,1.1v3.9c0,0.6,0.5,1.1,1.1,1.1h6.1c0.6,0,1.1-0.5,1.1-1.1V6.8     C42.8,6.2,42.3,5.7,41.7,5.7z"/>
		</g>
		<g>
			<path class="st2" d="M41.5,27.7c0,0-0.1,0-0.1,0l-6.2-5.5L29,27.7c0,0-0.1,0-0.1,0h-21c-0.1,0-0.2-0.1-0.2-0.2c0,0,0-0.1,0-0.1     l5.6-8.4c0,0,0.1-0.1,0.1-0.1h15.4l6.2-5.6c0.1-0.1,0.1-0.1,0.2,0l6.3,5.6h15.2c0.1,0,0.1,0,0.1,0.1l5.6,8.4c0,0.1,0,0.2,0,0.2     c0,0-0.1,0-0.1,0L41.5,27.7z"/>
			<path class="st2" d="M35.2,13.6l6.3,5.6h15.2l5.6,8.4H41.5L35.2,22l-6.3,5.6h-21l5.6-8.4h15.4L35.2,13.6 M35.2,13.3     c-0.1,0-0.2,0-0.2,0.1l-6.2,5.5H13.5c-0.1,0-0.2,0.1-0.3,0.1l-5.6,8.4c-0.1,0.1,0,0.3,0.1,0.4c0,0,0.1,0,0.2,0h21     c0.1,0,0.2,0,0.2-0.1l6.1-5.4l6.1,5.4c0.1,0.1,0.1,0.1,0.2,0.1h20.8c0.2,0,0.3-0.2,0.3-0.3c0-0.1,0-0.1,0-0.2L57,19     c-0.1-0.1-0.2-0.1-0.3-0.1H41.6l-6.2-5.5C35.4,13.3,35.3,13.3,35.2,13.3L35.2,13.3z"/>
		</g>
		<polyline class="st3" points="35.2,9.1 35.2,10.8 41.5,10.8 41.5,9.1   "/>
		<line class="st3" x1="35.2" y1="15.1" x2="35.2" y2="10.8"/>
		<g>
			<path class="st4" d="M15.9,30.8h2.8c0.2,0,0.3,0.1,0.3,0.3v5.6c0,0.2-0.1,0.3-0.3,0.3h-2.8c-0.2,0-0.3-0.1-0.3-0.3v-5.6     C15.6,31,15.8,30.8,15.9,30.8z"/>
			<path class="st4" d="M18.7,31.1v5.6h-2.8v-5.6H18.7 M18.7,30.6h-2.8c-0.3,0-0.6,0.3-0.6,0.6v5.6c0,0.3,0.3,0.6,0.6,0.6     c0,0,0,0,0,0h2.8c0.3,0,0.6-0.3,0.6-0.6l0,0v-5.6C19.3,30.8,19,30.6,18.7,30.6z"/>
		</g>
		<g>
			<path class="st4" d="M24.1,30.8h2.8c0.2,0,0.3,0.1,0.3,0.3v5.6c0,0.2-0.1,0.3-0.3,0.3h-2.8c-0.2,0-0.3-0.1-0.3-0.3v-5.6     C23.8,30.9,23.9,30.8,24.1,30.8z"/>
			<path class="st4" d="M26.8,31v5.6H24V31H26.8 M26.8,30.4H24c-0.3,0-0.6,0.3-0.6,0.6v5.6c0,0.3,0.3,0.6,0.6,0.6l0,0h2.8     c0.3,0,0.6-0.3,0.6-0.6l0,0V31C27.4,30.7,27.1,30.4,26.8,30.4z"/>
		</g>
		<g>
			<path class="st4" d="M15.9,39.8h2.8c0.2,0,0.3,0.1,0.3,0.3v5.6c0,0.2-0.1,0.3-0.3,0.3h-2.8c-0.2,0-0.3-0.1-0.3-0.3v-5.6     C15.6,40,15.8,39.8,15.9,39.8z"/>
			<path class="st4" d="M18.7,40.1v5.6h-2.8v-5.6H18.7 M18.7,39.5h-2.8c-0.3,0-0.6,0.3-0.6,0.6l0,0v5.6c0,0.3,0.3,0.6,0.6,0.6     c0,0,0,0,0,0h2.8c0.3,0,0.6-0.3,0.6-0.6l0,0v-5.6C19.3,39.8,19,39.5,18.7,39.5L18.7,39.5z"/>
		</g>
		<g>
			<path class="st4" d="M24.1,39.8h2.8c0.2,0,0.3,0.1,0.3,0.3v5.6c0,0.2-0.1,0.3-0.3,0.3h-2.8c-0.2,0-0.3-0.1-0.3-0.3V40     C23.8,39.9,23.9,39.8,24.1,39.8z"/>
			<path class="st4" d="M26.8,40v5.6H24V40H26.8 M26.8,39.4H24c-0.3,0-0.6,0.3-0.6,0.6l0,0v5.6c0,0.3,0.3,0.6,0.6,0.6l0,0h2.8     c0.3,0,0.6-0.3,0.6-0.6l0,0V40C27.4,39.7,27.1,39.4,26.8,39.4L26.8,39.4z"/>
		</g>
		<g>
			<path class="st4" d="M43.6,30.8h2.8c0.2,0,0.3,0.1,0.3,0.3v5.6c0,0.2-0.1,0.3-0.3,0.3h-2.8c-0.2,0-0.3-0.1-0.3-0.3v-5.6     C43.3,30.9,43.4,30.8,43.6,30.8z"/>
			<path class="st4" d="M46.4,31v5.6h-2.8V31H46.4 M46.4,30.4h-2.8c-0.3,0-0.6,0.2-0.6,0.5c0,0,0,0,0,0v5.6c0,0.3,0.3,0.6,0.6,0.6     c0,0,0,0,0,0h2.8c0.3,0,0.6-0.3,0.6-0.6c0,0,0,0,0,0V31C46.9,30.7,46.7,30.4,46.4,30.4L46.4,30.4L46.4,30.4z"/>
		</g>
		<g>
			<path class="st5" d="M51.7,30.8h2.8c0.2,0,0.3,0.1,0.3,0.3v5.6c0,0.2-0.1,0.3-0.3,0.3h-2.8c-0.2,0-0.3-0.1-0.3-0.3v-5.6     C51.4,30.9,51.5,30.8,51.7,30.8z"/>
			<path class="st5" d="M54.5,31v5.6h-2.8V31H54.5 M54.5,30.4h-2.8c-0.3,0-0.6,0.3-0.6,0.6l0,0v5.6c0,0.3,0.3,0.6,0.6,0.6     c0,0,0,0,0,0h2.8c0.3,0,0.6-0.3,0.6-0.6c0,0,0,0,0,0V31C55.1,30.7,54.8,30.4,54.5,30.4L54.5,30.4z"/>
		</g>
		<g>
			<path class="st4" d="M43.6,39.8h2.8c0.2,0,0.3,0.1,0.3,0.3v5.6c0,0.2-0.1,0.3-0.3,0.3h-2.8c-0.2,0-0.3-0.1-0.3-0.3V40     C43.3,39.9,43.4,39.8,43.6,39.8z"/>
			<path class="st4" d="M46.4,40v5.6h-2.8V40H46.4 M46.4,39.4h-2.8c-0.3,0-0.6,0.2-0.6,0.5c0,0,0,0,0,0v5.6c0,0.3,0.3,0.6,0.6,0.6     c0,0,0,0,0,0h2.8c0.3,0,0.6-0.3,0.6-0.6c0,0,0,0,0,0V40C46.9,39.7,46.7,39.4,46.4,39.4C46.4,39.4,46.4,39.4,46.4,39.4L46.4,39.4z     "/>
		</g>
		<g>
			<path class="st4" d="M51.7,39.8h2.8c0.2,0,0.3,0.1,0.3,0.3v5.6c0,0.2-0.1,0.3-0.3,0.3h-2.8c-0.2,0-0.3-0.1-0.3-0.3V40     C51.4,39.9,51.5,39.8,51.7,39.8z"/>
			<path class="st4" d="M54.5,40v5.6h-2.8V40H54.5 M54.5,39.4h-2.8c-0.3,0-0.6,0.3-0.6,0.6c0,0,0,0,0,0v5.6c0,0.3,0.3,0.6,0.6,0.6     c0,0,0,0,0,0h2.8c0.3,0,0.6-0.3,0.6-0.6c0,0,0,0,0,0V40C55.1,39.7,54.8,39.4,54.5,39.4C54.5,39.4,54.5,39.4,54.5,39.4z"/>
		</g>
		<polygon class="st6" points="39,49.3 31.8,49.3 32,37.6 39.1,37.6   "/>
		<circle class="st6" cx="35.4" cy="30.7" r="3.2"/>
		<circle class="st7" cx="35.4" cy="30.9" r="3.5"/>
		<polygon class="st7" points="39.1,37.1 32.1,37.1 31.9,49.8 38.9,49.8   "/>
		<line class="st7" x1="1.2" y1="49.9" x2="69" y2="49.9"/>
		<rect x="35.8" y="8.9" class="st6" width="6" height="1.8"/>
		<rect x="35.8" y="7.7" class="st6" width="6" height="1.8"/>
		<rect x="35.8" y="6.6" class="st6" width="6" height="1.5"/>
	</g>
</g>
</svg>