<?xml version="1.0" encoding="UTF-8"?>
<svg xmlns="http://www.w3.org/2000/svg" viewBox="0 0 24 24">
  <path d="M18.72 14.76l1.53 3.26c.13.28.07.61-.14.82l-1.64 1.64c-.35.35-.92.35-1.27 0l-3.45-3.45a.63.63 0 0 1-.18-.44V8.39c0-.5.4-.9.9-.9s.9.4.9.9v3.66l3.03 3.03c.24.24.63.24.87 0l1.64-1.64c.21-.21.27-.54.14-.82l-1.53-3.26c-.12-.26-.39-.42-.68-.42-.29 0-.56.16-.68.42l-1.53 3.26c-.13.28-.07.61.14.82l1.64 1.64c.24.24.63.24.87 0l3.03-3.03V8.39c0-.5.4-.9.9-.9s.9.4.9.9v6.26c0 .17-.06.33-.18.44l-3.45 3.45c-.35.35-.92.35-1.27 0l-1.64-1.64c-.21-.21-.27-.54-.14-.82l1.53-3.26c.12-.26.39-.42.68-.42.29 0 .56.16.68.42z" />
</svg> 